<svg viewBox="0 0 128 128" fill="none" xmlns="http://www.w3.org/2000/svg">
    <path fill-rule="evenodd" clip-rule="evenodd"
        d="M27.037 10h73.926A23.124 23.124 0 01124 33.037v62.656a23.008 23.008 0 01-6.719 16.27l-.215.195a22.97 22.97 0 01-16.054 6.572H27.037a22.982 22.982 0 01-16.27-6.767l-.195-.215A22.909 22.909 0 014 95.693V33.037A23.106 23.106 0 0127.037 10zm29.697 46.611l24.659 17.217a3.703 3.703 0 01.136 6.153L56.95 96.963a3.662 3.662 0 01-2.343.85 3.7 3.7 0 01-3.731-3.702V59.63a3.68 3.68 0 015.86-3.018zM11.178 35.85H24.85l8.847-18.672h-6.66a15.908 15.908 0 00-15.86 15.86v2.812zm29.004-18.672L31.344 35.85h24.765l8.858-18.643-24.785-.03zm31.25 0L62.516 35.85h24.12l8.868-18.672H71.432zm30.586 0L93.121 35.85h23.701v-2.813a15.936 15.936 0 00-14.843-15.83l.039-.03zm14.843 26.054H11.178v52.461a15.833 15.833 0 004.54 11.036l.167.156a15.814 15.814 0 0011.152 4.678h73.926a15.831 15.831 0 0011.035-4.493l.156-.175a15.8 15.8 0 004.668-11.192V43.262l.039-.03z"
        fill="#F40407" />
</svg>