<svg viewBox="0 0 128 128" fill="none" xmlns="http://www.w3.org/2000/svg">
    <path fill-rule="evenodd" clip-rule="evenodd"
        d="M78.007 6.645c11.319-5.898 25.333-1.601 31.29 9.6 5.957 11.201 1.611 25.06-9.707 30.958l-9.307 4.892c8.018.293 15.664 4.698 19.668 12.227 5.957 11.202 1.621 25.06-9.707 30.958l-49.63 26.075c-11.319 5.898-25.332 1.601-31.29-9.6-5.957-11.201-1.611-25.06 9.708-30.958l9.306-4.892c-8.017-.293-15.664-4.698-19.668-12.227-5.957-11.202-1.611-25.06 9.707-30.958l49.63-26.075zM51.22 45.533l30.04 18.545-30.04 18.457V45.533z"
        fill="#F40407" />
</svg>